<svg xmlns:xlink="http://www.w3.org/1999/xlink" version="1.1" class="highcharts-root" style="font-family: arial; font-size: 12px;" xmlns="http://www.w3.org/2000/svg" width="650" height="250" viewBox="0 0 650 250" aria-label="Interactive chart" aria-hidden="false"><desc aria-hidden="true">Created with Highcharts 10.3.1</desc><defs aria-hidden="true"><clipPath id="highcharts-sankjs1-604-"><rect x="0" y="0" width="603" height="168" fill="none"></rect></clipPath><clipPath id="highcharts-sankjs1-617-"><rect x="0" y="0" width="603" height="168" fill="none"></rect></clipPath></defs><rect fill="none" class="highcharts-background" x="0" y="0" width="650" height="250" rx="0" ry="0" aria-hidden="true"></rect><rect fill="none" class="highcharts-plot-background" x="37" y="46" width="603" height="168" aria-hidden="true"></rect><g class="highcharts-pane-group" data-z-index="0" aria-hidden="true"></g><g class="highcharts-grid highcharts-xaxis-grid" data-z-index="1" aria-hidden="true"><path fill="none" stroke-dasharray="none" data-z-index="1" class="highcharts-grid-line" d="M 86.5 46 L 86.5 214" opacity="1"></path><path fill="none" stroke-dasharray="none" data-z-index="1" class="highcharts-grid-line" d="M 137.5 46 L 137.5 214" opacity="1"></path><path fill="none" stroke-dasharray="none" data-z-index="1" class="highcharts-grid-line" d="M 187.5 46 L 187.5 214" opacity="1"></path><path fill="none" stroke-dasharray="none" data-z-index="1" class="highcharts-grid-line" d="M 237.5 46 L 237.5 214" opacity="1"></path><path fill="none" stroke-dasharray="none" data-z-index="1" class="highcharts-grid-line" d="M 287.5 46 L 287.5 214" opacity="1"></path><path fill="none" stroke-dasharray="none" data-z-index="1" class="highcharts-grid-line" d="M 338.5 46 L 338.5 214" opacity="1"></path><path fill="none" stroke-dasharray="none" data-z-index="1" class="highcharts-grid-line" d="M 388.5 46 L 388.5 214" opacity="1"></path><path fill="none" stroke-dasharray="none" data-z-index="1" class="highcharts-grid-line" d="M 438.5 46 L 438.5 214" opacity="1"></path><path fill="none" stroke-dasharray="none" data-z-index="1" class="highcharts-grid-line" d="M 488.5 46 L 488.5 214" opacity="1"></path><path fill="none" stroke-dasharray="none" data-z-index="1" class="highcharts-grid-line" d="M 539.5 46 L 539.5 214" opacity="1"></path><path fill="none" stroke-dasharray="none" data-z-index="1" class="highcharts-grid-line" d="M 589.5 46 L 589.5 214" opacity="1"></path><path fill="none" stroke-dasharray="none" data-z-index="1" class="highcharts-grid-line" d="M 639.5 46 L 639.5 214" opacity="1"></path><path fill="none" stroke-dasharray="none" data-z-index="1" class="highcharts-grid-line" d="M 36.5 46 L 36.5 214" opacity="1"></path></g><g class="highcharts-grid highcharts-yaxis-grid" data-z-index="1" aria-hidden="true"><path fill="none" stroke="#e6e6e6" stroke-width="1" stroke-dasharray="none" data-z-index="1" class="highcharts-grid-line" d="M 37 214.5 L 640 214.5" opacity="1"></path><path fill="none" stroke="#e6e6e6" stroke-width="1" stroke-dasharray="none" data-z-index="1" class="highcharts-grid-line" d="M 37 158.5 L 640 158.5" opacity="1"></path><path fill="none" stroke="#e6e6e6" stroke-width="1" stroke-dasharray="none" data-z-index="1" class="highcharts-grid-line" d="M 37 102.5 L 640 102.5" opacity="1"></path><path fill="none" stroke="#e6e6e6" stroke-width="1" stroke-dasharray="none" data-z-index="1" class="highcharts-grid-line" d="M 37 45.5 L 640 45.5" opacity="1"></path></g><rect fill="none" class="highcharts-plot-border" data-z-index="1" x="37" y="46" width="603" height="168" aria-hidden="true"></rect><g class="highcharts-axis highcharts-xaxis" data-z-index="2" aria-hidden="true"><path fill="none" class="highcharts-axis-line" stroke="#ccd6eb" stroke-width="1" data-z-index="7" d="M 37 214.5 L 640 214.5"></path></g><g class="highcharts-axis highcharts-yaxis" data-z-index="2" aria-hidden="true"><path fill="none" class="highcharts-axis-line" data-z-index="7" d="M 37 46 L 37 214"></path></g><g class="highcharts-series-group" data-z-index="3" aria-hidden="false"><g class="highcharts-series highcharts-series-0 highcharts-area-series" data-z-index="0.1" opacity="1" transform="translate(37,46) scale(1 1)" clip-path="url(#highcharts-sankjs1-617-)" aria-hidden="true"><path fill="rgb(41,105,241)" fill-opacity="0.35" d="M 25.125 145.6 L 75.375 105.28 L 125.625 80.64 L 175.875 114.24000000000001 L 226.125 136.64 L 276.375 89.6 L 326.625 80.64 L 376.875 56 L 427.125 100.8 L 477.375 138.88 L 527.625 42.56 L 577.875 40.31999999999999 L 577.875 168 L 527.625 168 L 477.375 168 L 427.125 168 L 376.875 168 L 326.625 168 L 276.375 168 L 226.125 168 L 175.875 168 L 125.625 168 L 75.375 168 L 25.125 168 Z" class="highcharts-area" data-z-index="0"></path><path fill="none" d="M 25.125 145.6 L 75.375 105.28 L 125.625 80.64 L 175.875 114.24000000000001 L 226.125 136.64 L 276.375 89.6 L 326.625 80.64 L 376.875 56 L 427.125 100.8 L 477.375 138.88 L 527.625 42.56 L 577.875 40.31999999999999" class="highcharts-graph" data-z-index="1" stroke="#2969f1" stroke-width="2" stroke-linejoin="round" stroke-linecap="round"></path></g><g class="highcharts-markers highcharts-series-0 highcharts-area-series" data-z-index="0.1" opacity="1" transform="translate(37,46) scale(1 1)" clip-path="none" aria-hidden="false"><path fill="#2969f1" d="M 25 150 A 4 4 0 1 1 25.003999999333335 149.99999800000018 Z" opacity="0" class="highcharts-point" tabindex="-1" role="img" aria-label="Jan, 10 units. Month." style="outline: none;"></path><path fill="#2969f1" d="M 75 109 A 4 4 0 1 1 75.00399999933333 108.99999800000016 Z" opacity="0" class="highcharts-point" tabindex="-1" role="img" aria-label="Feb, 28 units. Month." style="outline: none;"></path><path fill="#2969f1" d="M 125 85 A 4 4 0 1 1 125.00399999933333 84.99999800000016 Z" opacity="0" class="highcharts-point" tabindex="-1" role="img" aria-label="Mar, 39 units. Month." style="outline: none;"></path><path fill="#2969f1" d="M 175 118 A 4 4 0 1 1 175.00399999933333 117.99999800000016 Z" opacity="0" class="highcharts-point" tabindex="-1" role="img" aria-label="Apr, 24 units. Month." style="outline: none;"></path><path fill="#2969f1" d="M 226 141 A 4 4 0 1 1 226.00399999933333 140.99999800000018 Z" opacity="0" class="highcharts-point" tabindex="-1" role="img" aria-label="May, 14 units. Month." style="outline: none;"></path><path fill="#2969f1" d="M 276 94 A 4 4 0 1 1 276.00399999933336 93.99999800000016 Z" opacity="0" class="highcharts-point" tabindex="-1" role="img" aria-label="Jun, 35 units. Month." style="outline: none;"></path><path fill="#2969f1" d="M 326 85 A 4 4 0 1 1 326.00399999933336 84.99999800000016 Z" opacity="0" class="highcharts-point" tabindex="-1" role="img" aria-label="Jul, 39 units. Month." style="outline: none;"></path><path fill="#2969f1" d="M 376 60 A 4 4 0 1 1 376.00399999933336 59.99999800000017 Z" opacity="0" class="highcharts-point" tabindex="-1" role="img" aria-label="Aug, 50 units. Month." style="outline: none;"></path><path fill="#2969f1" d="M 427 105 A 4 4 0 1 1 427.00399999933336 104.99999800000016 Z" opacity="0" class="highcharts-point" tabindex="-1" role="img" aria-label="Sep, 30 units. Month." style="outline: none;"></path><path fill="#2969f1" d="M 477 143 A 4 4 0 1 1 477.00399999933336 142.99999800000018 Z" opacity="0" class="highcharts-point" tabindex="-1" role="img" aria-label="Oct, 13 units. Month." style="outline: none;"></path><path fill="#2969f1" d="M 527 47 A 4 4 0 1 1 527.0039999993334 46.99999800000017 Z" opacity="0" class="highcharts-point" tabindex="-1" role="img" aria-label="Nov, 56 units. Month." style="outline: none;"></path><path fill="#2969f1" d="M 577 44 A 4 4 0 1 1 577.0039999993334 43.99999800000017 Z" opacity="0" class="highcharts-point" tabindex="-1" role="img" aria-label="Dec, 57 units. Month." style="outline: none;"></path></g></g><text x="325" text-anchor="middle" class="highcharts-subtitle" data-z-index="4" style="color: rgb(102, 102, 102); fill: rgb(102, 102, 102);" y="45" aria-hidden="true"></text><text x="10" text-anchor="start" class="highcharts-caption" data-z-index="4" style="color: rgb(102, 102, 102); fill: rgb(102, 102, 102);" y="247" aria-hidden="true"></text><g class="highcharts-legend highcharts-no-tooltip" data-z-index="7" visibility="hidden" aria-hidden="true"><rect fill="none" class="highcharts-legend-box" rx="0" ry="0" x="0" y="0" width="8" height="8"></rect><g data-z-index="1"><g></g></g></g><g class="highcharts-axis-labels highcharts-xaxis-labels" data-z-index="7" aria-hidden="true"><text x="62.125" style="color: rgb(102, 102, 102); cursor: default; font-size: 11px; fill: rgb(102, 102, 102);" text-anchor="middle" transform="translate(0,0)" y="233" opacity="1">Jan</text><text x="112.375" style="color: rgb(102, 102, 102); cursor: default; font-size: 11px; fill: rgb(102, 102, 102);" text-anchor="middle" transform="translate(0,0)" y="233" opacity="1">Feb</text><text x="162.625" style="color: rgb(102, 102, 102); cursor: default; font-size: 11px; fill: rgb(102, 102, 102);" text-anchor="middle" transform="translate(0,0)" y="233" opacity="1">Mar</text><text x="212.875" style="color: rgb(102, 102, 102); cursor: default; font-size: 11px; fill: rgb(102, 102, 102);" text-anchor="middle" transform="translate(0,0)" y="233" opacity="1">Apr</text><text x="263.125" style="color: rgb(102, 102, 102); cursor: default; font-size: 11px; fill: rgb(102, 102, 102);" text-anchor="middle" transform="translate(0,0)" y="233" opacity="1">May</text><text x="313.375" style="color: rgb(102, 102, 102); cursor: default; font-size: 11px; fill: rgb(102, 102, 102);" text-anchor="middle" transform="translate(0,0)" y="233" opacity="1">Jun</text><text x="363.625" style="color: rgb(102, 102, 102); cursor: default; font-size: 11px; fill: rgb(102, 102, 102);" text-anchor="middle" transform="translate(0,0)" y="233" opacity="1">Jul</text><text x="413.875" style="color: rgb(102, 102, 102); cursor: default; font-size: 11px; fill: rgb(102, 102, 102);" text-anchor="middle" transform="translate(0,0)" y="233" opacity="1">Aug</text><text x="464.125" style="color: rgb(102, 102, 102); cursor: default; font-size: 11px; fill: rgb(102, 102, 102);" text-anchor="middle" transform="translate(0,0)" y="233" opacity="1">Sep</text><text x="514.375" style="color: rgb(102, 102, 102); cursor: default; font-size: 11px; fill: rgb(102, 102, 102);" text-anchor="middle" transform="translate(0,0)" y="233" opacity="1">Oct</text><text x="564.625" style="color: rgb(102, 102, 102); cursor: default; font-size: 11px; fill: rgb(102, 102, 102);" text-anchor="middle" transform="translate(0,0)" y="233" opacity="1">Nov</text><text x="614.875" style="color: rgb(102, 102, 102); cursor: default; font-size: 11px; fill: rgb(102, 102, 102);" text-anchor="middle" transform="translate(0,0)" y="233" opacity="1">Dec</text></g><g class="highcharts-axis-labels highcharts-yaxis-labels" data-z-index="7" aria-hidden="true"><text x="22" style="color: rgb(102, 102, 102); cursor: default; font-size: 11px; fill: rgb(102, 102, 102);" text-anchor="end" transform="translate(0,0)" y="219" opacity="1">$0K</text><text x="22" style="color: rgb(102, 102, 102); cursor: default; font-size: 11px; fill: rgb(102, 102, 102);" text-anchor="end" transform="translate(0,0)" y="163" opacity="1">$25K</text><text x="22" text-anchor="end" transform="translate(0,0)" style="color: rgb(102, 102, 102); cursor: default; font-size: 11px; fill: rgb(102, 102, 102);" y="107" opacity="1">$50K</text><text x="22" text-anchor="end" transform="translate(0,0)" style="color: rgb(102, 102, 102); cursor: default; font-size: 11px; fill: rgb(102, 102, 102);" y="51" opacity="1">$75K</text></g></svg>